<svg xmlns="http://www.w3.org/2000/svg" width="148" height="39" viewBox="0 0 148 39" fill="none"><path d="M125.719 31.3668C125.715 31.3714 125.712 31.3766 125.708 31.3818L124.693 32.8372C124.444 33.1818 124.149 33.4584 123.82 33.6601L123.779 33.6849C123.679 33.7447 123.613 33.8479 123.601 33.9635C123.562 34.3148 123.431 34.644 123.203 34.9509L122.172 36.4229C121.838 36.9058 121.319 37.2767 120.63 37.5254C120.003 37.7524 119.199 37.8623 118.169 37.8623H112.386C112.247 37.8623 112.113 37.8602 111.987 37.8561C111.982 37.8556 111.979 37.8556 111.975 37.8556C111.951 37.8556 111.928 37.8582 111.906 37.8623H105.331L102.859 35.6294C102.78 35.5582 102.674 35.5241 102.569 35.536C102.463 35.5479 102.368 35.6041 102.307 35.6913L100.782 37.8623H95.9417C95.8571 37.7504 95.7157 37.6957 95.5764 37.7215C95.0791 37.8164 94.5012 37.8623 93.8099 37.8623H83.9015L85.8651 35.0706H87.8545C88.0238 35.0706 88.1713 34.9561 88.2136 34.7925C88.2559 34.629 88.1822 34.4572 88.0346 34.3752C87.4449 34.0481 87.3809 33.5321 87.3809 33.3253C87.3809 33.0322 87.4893 32.735 87.7111 32.4183L89.1175 30.417C89.4441 29.9521 89.9482 29.593 90.6168 29.349C91.2266 29.1261 92.0238 29.0178 93.053 29.0178H106.967L106.332 29.9274C106.239 30.0615 106.244 30.24 106.344 30.3685C106.445 30.4969 106.617 30.5444 106.769 30.4861L110.58 29.0178H123.263C124.074 29.0178 124.642 29.0859 125.052 29.2319C125.947 29.5523 126.043 30.1889 126.043 30.4474C126.043 30.7745 125.931 31.0923 125.719 31.3668ZM125.302 28.5338L125.301 28.5333C124.809 28.3579 124.161 28.2759 123.263 28.2759H110.51C110.465 28.2759 110.42 28.2846 110.377 28.3006L107.634 29.3583L107.982 28.8594C108.061 28.7459 108.07 28.5978 108.007 28.4755C107.943 28.3528 107.816 28.2759 107.677 28.2759H93.053C91.9355 28.2759 91.0554 28.3992 90.3625 28.652C89.5489 28.9492 88.9261 29.3996 88.5103 29.9908L87.1039 31.9921C86.7912 32.4384 86.6395 32.8748 86.6395 33.3253C86.6395 33.4909 86.6689 33.9088 86.9295 34.3287H85.6727C85.552 34.3287 85.4385 34.3875 85.3693 34.4861L82.8841 38.0197C82.8041 38.1332 82.7943 38.2812 82.8583 38.404C82.9218 38.5268 83.0487 38.6042 83.1875 38.6042H93.8099C94.3686 38.6042 94.8614 38.5753 95.3035 38.5165C95.3695 38.5722 95.4536 38.6042 95.5429 38.6042H100.975C101.095 38.6042 101.208 38.5454 101.278 38.4463L102.672 36.4605L104.939 38.5083C105.008 38.5702 105.096 38.6042 105.188 38.6042H111.981C112 38.6042 112.02 38.6027 112.038 38.5996C112.15 38.6027 112.266 38.6042 112.386 38.6042H118.169C119.286 38.6042 120.173 38.4794 120.882 38.2229C121.719 37.9211 122.358 37.4573 122.781 36.8465L123.804 35.3848C124.063 35.0361 124.237 34.6388 124.311 34.2261C124.683 33.98 125.014 33.6596 125.297 33.267L126.311 31.8131C126.621 31.4091 126.785 30.937 126.785 30.4474C126.785 30.1229 126.678 29.026 125.302 28.5338Z" fill="white"></path><path d="M111.363 32.618C111.345 32.6309 111.328 32.6438 111.311 32.6572C110.923 32.9549 110.618 33.2573 110.372 33.59L109.321 35.0909L108.093 33.881L111.374 32.5525C111.37 32.5742 111.366 32.5958 111.363 32.618ZM112.319 31.646C112.216 31.5232 112.045 31.4804 111.896 31.5408L107.292 33.4053C107.177 33.4518 107.092 33.5539 107.068 33.6762C107.043 33.799 107.082 33.9254 107.171 34.0131L109.143 35.9566C109.213 36.0257 109.307 36.0634 109.403 36.0634C109.425 36.0634 109.449 36.0613 109.471 36.0572C109.59 36.035 109.691 35.9556 109.741 35.8451C109.79 35.7378 109.849 35.6326 109.922 35.5253L110.974 34.0229C111.172 33.7546 111.43 33.5008 111.762 33.2459C111.817 33.2041 111.872 33.1634 111.928 33.1236C112.017 33.0597 112.074 32.9591 112.081 32.8497C112.092 32.7186 112.121 32.5824 112.17 32.4442C112.21 32.3296 112.269 32.211 112.35 32.0804C112.434 31.9442 112.422 31.7688 112.319 31.646Z" fill="white"></path><path d="M98.8622 33.3396C98.8622 33.1327 98.7043 32.9769 98.3896 32.8737C98.0738 32.77 97.5651 32.7179 96.8624 32.7179H91.4447C91.2466 32.7179 91.1475 32.6864 91.1475 32.6235L92.1876 31.1371C92.215 31.1015 92.2691 31.0747 92.3501 31.0561C92.4311 31.0385 92.5256 31.0293 92.6339 31.0293H100.605L101.456 29.7998H93.0528C92.1247 29.7998 91.4019 29.8942 90.8839 30.0836C90.3659 30.2729 89.9903 30.534 89.7561 30.8673L88.3507 32.867C88.2248 33.047 88.1618 33.2003 88.1618 33.3262C88.1618 33.5336 88.3192 33.6863 88.6344 33.7853C88.9497 33.8844 89.4589 33.9339 90.1611 33.9339H95.5788C95.7769 33.9339 95.8765 33.9659 95.8765 34.0283L95.8626 34.0691L94.6873 35.7443C94.6419 35.8165 94.4938 35.8527 94.2415 35.8527H86.2705L85.4058 37.0821H93.8092C94.7368 37.0821 95.455 36.9944 95.9642 36.8185C96.4729 36.6431 96.8537 36.3748 97.1059 36.0147L98.6728 33.7853C98.7992 33.6053 98.8622 33.4567 98.8622 33.3396Z" fill="white"></path><path d="M114.116 29.7998H110.725L103.537 32.5693L105.469 29.7998H102.848L97.7542 37.0821H100.376L102.416 34.1774L105.631 37.0821H109.171L105.374 33.3396L114.116 29.7998Z" fill="white"></path><path d="M122.317 31.1371L121.29 32.5961C121.236 32.6771 121.083 32.7179 120.831 32.7179H115.832C115.634 32.7179 115.535 32.6864 115.535 32.6235L116.575 31.1371C116.602 31.1015 116.656 31.0741 116.737 31.0561C116.818 31.038 116.913 31.0293 117.021 31.0293H122.02C122.227 31.0293 122.33 31.0514 122.33 31.0968C122.33 31.1149 122.326 31.1283 122.317 31.1371ZM120.277 34.0557L119.088 35.7443C119.043 35.8165 118.894 35.8521 118.642 35.8521H113.643C113.436 35.8521 113.333 35.8253 113.333 35.7711L114.535 34.0557C114.553 34.0196 114.604 33.9902 114.69 33.9675C114.776 33.9453 114.873 33.9339 114.981 33.9339H119.98C120.187 33.9339 120.29 33.9608 120.29 34.0149C120.29 34.033 120.286 34.0464 120.277 34.0557ZM124.789 29.9685C124.474 29.856 123.965 29.7998 123.263 29.7998H117.48C116.553 29.7998 115.82 29.8989 115.285 30.097C114.749 30.2951 114.359 30.5654 114.116 30.9075L113.089 32.38C112.999 32.5064 112.938 32.6142 112.907 32.7045C112.875 32.7948 112.86 32.8758 112.86 32.9475C112.86 33.0378 112.88 33.1162 112.92 33.1838C112.961 33.2514 113.008 33.3081 113.062 33.353C112.783 33.4882 112.508 33.6589 112.238 33.8663C111.968 34.0737 111.756 34.2806 111.603 34.488L110.563 35.9739C110.446 36.1452 110.387 36.2984 110.387 36.4336C110.387 36.6405 110.545 36.8004 110.86 36.9129C111.175 37.0259 111.684 37.0816 112.386 37.0816H118.169C119.097 37.0816 119.829 36.9851 120.365 36.7911C120.9 36.5977 121.29 36.3252 121.533 35.9739L122.574 34.488C122.745 34.2626 122.83 34.0196 122.83 33.758C122.83 33.6141 122.794 33.4794 122.723 33.353C122.939 33.2632 123.168 33.1435 123.411 32.9949C123.655 32.8464 123.871 32.6415 124.06 32.38L125.086 30.9075C125.204 30.7636 125.262 30.6103 125.262 30.4483C125.262 30.2409 125.105 30.081 124.789 29.9685Z" fill="white"></path><path d="M35.1624 7.75945C35.1624 7.75945 35.1784 7.74655 35.1846 7.74036C35.2233 7.71147 35.2645 7.68258 35.3156 7.6542C35.3894 7.60932 35.4719 7.57114 35.5679 7.52935C35.6927 7.47827 35.8233 7.4339 35.9734 7.39521C36.1555 7.34722 36.3475 7.30905 36.561 7.27706C36.8071 7.24198 37.0656 7.21669 37.3499 7.20689C37.4299 7.20689 37.5062 7.2007 37.58 7.2007L48.949 7.2007L48.9938 7.19761H49.3612C49.5175 7.19761 49.6738 7.2038 49.8276 7.20999C49.9839 7.2167 50.131 7.22598 50.2744 7.23888L48.9268 9.06578L34.2141 9.07197L35.1655 7.76925L35.1624 7.75945ZM147.817 0.644303V0.615411L120.039 0.615411L118.365 0.625215H118.336C116.088 0.625215 113.955 0.870796 112 1.35628C110.439 1.74271 108.982 2.28547 107.667 2.96597L108.334 2.05227L108.318 2.03988H108.337V0.628308H108.318V0.60922C98.2612 0.618506 88.0609 0.621603 78.0044 0.621603H77.9822C75.983 0.621603 74.0921 0.889883 72.3679 1.42026C70.9816 1.84486 69.698 2.4387 68.5547 3.18318C67.5357 3.84718 66.814 4.5086 66.3924 4.9492C65.9359 5.42179 65.7156 5.74424 65.7094 5.75404L58.2934 15.9188L55.4481 16.8294L62.9373 6.56508L62.9213 6.55218L62.9404 6.55889C63.4929 5.26546 63.461 4.15725 62.8382 3.26263C62.3527 2.56665 61.5061 1.9919 60.3184 1.56059C59.3697 1.21595 58.2042 0.960051 56.8535 0.797534C54.5731 0.526156 52.5197 0.618507 52.4686 0.621603L37.548 0.628308H37.5258C35.5008 0.628308 33.5718 0.896591 31.7996 1.42645C30.3751 1.85106 29.0435 2.4454 27.8424 3.18937C26.776 3.85388 26.0093 4.51479 25.5558 4.95539C25.0641 5.43159 24.8217 5.75714 24.8186 5.76023L24.85 5.78603L24.8186 5.76333L13.9635 20.719L9.46045 26.2761L9.47644 26.289V26.3081H19.8744V26.2854L19.8904 26.2982L27.8202 15.488L45.9886 15.4813L42.1625 20.7128L37.5418 26.2694L37.5578 26.2823V26.3013L48.5342 26.2952H60.9984V26.2792L61.0144 26.2921L65.5143 20.8851L65.4983 20.8692L65.5174 20.882L69.4586 15.4813L89.9708 15.4813V15.4622L89.9868 15.4751L94.6688 9.09415L94.6528 9.08177V9.06268H74.5936L75.1591 8.36618C75.2261 8.28621 75.2834 8.20985 75.3376 8.13969C75.9923 7.30286 76.063 7.2167 79.4 7.2007H104.537L101.209 11.761L101.228 11.777L101.209 11.7641C100.443 12.8563 100.235 13.7633 100.599 14.4598C101.378 15.9508 104.549 15.9668 104.648 15.9668L126.087 15.9606L124.069 18.7296C123.513 19.4927 122.75 19.8791 121.805 19.8791H96.0066V19.8982L95.9906 19.8858L90.6193 26.273L90.6353 26.2854V26.3044C90.6353 26.3044 111.477 26.2952 120.677 26.2952C122.935 26.2952 124.979 26.0681 126.751 25.6275C128.17 25.2731 129.418 24.7783 130.462 24.1587C132.2 23.1268 132.791 22.0826 132.823 22.0222L138.271 14.5552C139.689 12.636 140.142 11.1831 139.625 10.2344C138.913 8.93164 136.578 9.05597 136.514 9.05907L114.111 9.06578L114.421 8.63756C114.462 8.58029 115.5 7.2038 118.42 7.2038H142.378V7.18471L142.394 7.19761L147.833 0.656685L147.817 0.644303Z" fill="white"></path><mask id="mask0_3137_5607" style="mask-type:luminance" maskUnits="userSpaceOnUse" x="0" y="28" width="86" height="11"><path d="M8.19542 28.2759L0.675781 38.6042H77.8868L85.4059 28.2759H8.19542Z" fill="white"></path></mask><g mask="url(#mask0_3137_5607)"><path d="M9.44756 27.6978H14.5676V32.8178H9.44756V27.6978Z" fill="white"></path><path d="M19.6851 27.6978H24.8052V32.8178H19.6851V27.6978Z" fill="white"></path><path d="M29.9273 27.6978H35.0474V32.8178H29.9273V27.6978Z" fill="white"></path><path d="M40.1695 27.6978H45.2896V32.8178H40.1695V27.6978Z" fill="white"></path><path d="M50.4071 27.6978H55.5271V32.8178H50.4071V27.6978Z" fill="white"></path><path d="M60.6492 27.6978H65.7693V32.8178H60.6492V27.6978Z" fill="white"></path><path d="M70.8863 27.6978H76.0063V32.8178H70.8863V27.6978Z" fill="white"></path><path d="M76.0074 32.8184H81.1274V37.9384H76.0074V32.8184Z" fill="white"></path><path d="M4.32671 32.8184H9.44678V37.9384H4.32671V32.8184Z" fill="white"></path><path d="M14.5694 32.8184H19.6895V37.9384H14.5694V32.8184Z" fill="white"></path><path d="M24.8062 32.8184H29.9263V37.9384H24.8062V32.8184Z" fill="white"></path><path d="M35.0484 32.8184H40.1685V37.9384H35.0484V32.8184Z" fill="white"></path><path d="M45.2855 32.8184H50.4055V37.9384H45.2855V32.8184Z" fill="white"></path><path d="M55.5281 32.8184H60.6482V37.9384H55.5281V32.8184Z" fill="white"></path><path d="M65.7652 32.8184H70.8853V37.9384H65.7652V32.8184Z" fill="white"></path><path d="M-0.79438 37.938H4.32568V43.058H-0.79438V37.938Z" fill="white"></path><path d="M9.44756 37.938H14.5676V43.058H9.44756V37.938Z" fill="white"></path><path d="M19.6851 37.938H24.8052V43.058H19.6851V37.938Z" fill="white"></path><path d="M29.9273 37.938H35.0474V43.058H29.9273V37.938Z" fill="white"></path><path d="M40.1695 37.938H45.2896V43.058H40.1695V37.938Z" fill="white"></path><path d="M50.4071 37.938H55.5271V43.058H50.4071V37.938Z" fill="white"></path><path d="M60.6492 37.938H65.7693V43.058H60.6492V37.938Z" fill="white"></path><path d="M70.8863 37.938H76.0063V43.058H70.8863V37.938Z" fill="white"></path><path d="M81.129 27.6978H86.249V32.8178H81.129V27.6978Z" fill="white"></path></g></svg>