<svg xmlns="http://www.w3.org/2000/svg" width="128" height="41" viewBox="0 0 128 41" fill="none"><path d="M124.678 9.41673C124.668 9.43015 124.658 9.44356 124.648 9.45787L121.83 13.4987C121.139 14.4543 120.322 15.223 119.407 15.7829L119.293 15.8513C119.016 16.0168 118.833 16.303 118.798 16.6241C118.693 17.5989 118.327 18.513 117.694 19.3649L114.834 23.4513C113.906 24.7915 112.466 25.8209 110.552 26.5118C108.814 27.141 106.579 27.4469 103.722 27.4469H87.671C87.2819 27.4469 86.913 27.4406 86.5606 27.429C86.5499 27.4285 86.5387 27.4285 86.5275 27.4285C86.4627 27.4285 86.3992 27.4348 86.3375 27.4469H68.086L61.2239 21.248C61.0052 21.0508 60.7118 20.956 60.4189 20.9886C60.126 21.0217 59.8608 21.1791 59.6914 21.4206L55.4587 27.4469H42.0243C41.7896 27.1365 41.3974 26.9836 41.011 27.0565C39.6301 27.319 38.026 27.4469 36.1063 27.4469H8.60381L14.0541 19.6971H19.576C20.0455 19.6971 20.4552 19.3801 20.5728 18.9262C20.6904 18.4718 20.486 17.9956 20.076 17.768C18.4388 16.8588 18.2622 15.4265 18.2622 14.8527C18.2622 14.0389 18.5622 13.2151 19.1784 12.3351L23.0815 6.78101C23.9879 5.49043 25.3881 4.49275 27.2435 3.81526C28.9365 3.1968 31.1488 2.89674 34.0063 2.89674H72.6271L70.8652 5.42201C70.6063 5.79317 70.6202 6.28955 70.8992 6.64551C71.1783 7.00192 71.6572 7.13429 72.0793 6.97151L82.6553 2.89674H117.861C120.112 2.89674 121.69 3.08545 122.827 3.4915C125.311 4.38051 125.579 6.1469 125.579 6.86508C125.579 7.77242 125.268 8.65472 124.678 9.41673ZM123.52 1.5525L123.519 1.55205C122.153 1.06506 120.355 0.837891 117.861 0.837891H82.4639C82.3374 0.837891 82.2117 0.861144 82.0937 0.90631L74.4785 3.8412L75.4444 2.45626C75.664 2.14144 75.6904 1.73092 75.5128 1.39106C75.3358 1.0512 74.9838 0.837891 74.6001 0.837891H34.0063C30.9037 0.837891 28.4603 1.17909 26.5374 1.88118C24.2795 2.70579 22.5502 3.95568 21.3969 5.59686L17.4934 11.1527C16.6255 12.3919 16.2033 13.602 16.2033 14.8527C16.2033 15.3129 16.2851 16.4725 17.0082 17.6383H13.5197C13.1844 17.6383 12.8704 17.8015 12.6777 18.0756L5.77938 27.8842C5.55847 28.1981 5.53075 28.6096 5.70783 28.9508C5.88492 29.2915 6.23685 29.5057 6.62144 29.5057H36.1063C37.6576 29.5057 39.0255 29.4257 40.253 29.2625C40.4355 29.4167 40.6698 29.5057 40.9171 29.5057H55.9936C56.329 29.5057 56.6433 29.3425 56.8361 29.0679L60.7074 23.5559L66.9997 29.2401C67.1889 29.4109 67.4349 29.5057 67.6898 29.5057H86.5454C86.5991 29.5057 86.6518 29.5013 86.7033 29.4932C87.0132 29.5013 87.3351 29.5057 87.671 29.5057H103.722C106.822 29.5057 109.286 29.1596 111.252 28.4477C113.575 27.6092 115.35 26.3222 116.523 24.6278L119.364 20.5696C120.084 19.6019 120.565 18.4991 120.772 17.3539C121.803 16.671 122.72 15.7807 123.508 14.6909L126.323 10.655C127.184 9.53389 127.638 8.22408 127.638 6.86508C127.638 5.964 127.341 2.91955 123.52 1.5525Z" fill="white"></path><path d="M84.8302 12.8898C84.7824 12.9256 84.7341 12.9623 84.6858 12.9989C83.6094 13.8249 82.7629 14.6647 82.0814 15.5873L79.1635 19.7541L75.7554 16.3949L84.862 12.7074C84.8503 12.7682 84.8401 12.8286 84.8302 12.8898ZM87.4834 10.1919C87.1967 9.85074 86.7227 9.73223 86.3095 9.90038L73.5316 15.0748C73.2105 15.2045 72.9762 15.4871 72.9082 15.8274C72.8407 16.1673 72.9484 16.5183 73.1953 16.7616L78.668 22.1569C78.8625 22.3483 79.1228 22.4534 79.3906 22.4534C79.4532 22.4534 79.5167 22.4476 79.5789 22.4359C79.9103 22.3742 80.1902 22.1546 80.3288 21.8479C80.4634 21.5501 80.6284 21.2576 80.8319 20.9602L83.7525 16.7897C84.3025 16.0447 85.018 15.3395 85.9379 14.6334C86.0899 14.5167 86.2438 14.4036 86.3976 14.2931C86.6462 14.1156 86.8032 13.837 86.826 13.5324C86.8533 13.1698 86.9351 12.7914 87.0702 12.4069C87.1815 12.0894 87.3447 11.7593 87.5697 11.3985C87.8049 11.0197 87.7705 10.5331 87.4834 10.1919Z" fill="white"></path><path d="M50.1327 14.8905C50.1327 14.3159 49.6949 13.8844 48.8202 13.5968C47.9446 13.3097 46.5324 13.1653 44.5822 13.1653H29.5438C28.9937 13.1653 28.7187 13.0781 28.7187 12.9028L31.6066 8.77749C31.6818 8.67821 31.8316 8.60309 32.0565 8.55256C32.2819 8.50292 32.544 8.47788 32.844 8.47788H54.9708L57.3333 5.06494H34.0067C31.4313 5.06494 29.4248 5.32744 27.9876 5.85244C26.5494 6.37744 25.5061 7.10277 24.8564 8.02756L20.956 13.578C20.6054 14.0784 20.431 14.5033 20.431 14.853C20.431 15.4285 20.8679 15.8533 21.7435 16.1284C22.6182 16.4034 24.0313 16.5407 25.9815 16.5407H41.0195C41.5695 16.5407 41.8445 16.6288 41.8445 16.8032L41.8074 16.9159L38.5443 21.5662C38.4191 21.7665 38.0063 21.8658 37.3069 21.8658H15.1806L12.7805 25.2787H36.1067C38.6816 25.2787 40.6756 25.035 42.0887 24.5471C43.5009 24.0597 44.5572 23.316 45.2575 22.3161L49.6077 16.1284C49.9574 15.6284 50.1327 15.2156 50.1327 14.8905Z" fill="white"></path><path d="M92.4716 5.06494H83.0588L63.1075 12.753L68.4702 5.06494H61.1949L47.0566 25.2787H54.3319L59.9947 17.2155L68.9201 25.2787H78.7461L68.2077 14.8905L92.4716 5.06494Z" fill="white"></path><path d="M115.236 8.77749L112.385 12.8277C112.235 13.053 111.81 13.1653 111.11 13.1653H97.2344C96.6839 13.1653 96.4094 13.0781 96.4094 12.9028L99.2969 8.77749C99.372 8.67822 99.5218 8.60309 99.7472 8.55256C99.9721 8.50292 100.235 8.47743 100.535 8.47743H114.41C114.986 8.47743 115.273 8.54003 115.273 8.66525C115.273 8.71533 115.26 8.7529 115.236 8.77749ZM109.573 16.8783L106.273 21.5657C106.147 21.7665 105.735 21.8658 105.035 21.8658H91.159C90.5839 21.8658 90.2963 21.7911 90.2963 21.6408L93.6341 16.8783C93.6842 16.7786 93.8278 16.6967 94.0652 16.6346C94.3027 16.5724 94.5719 16.5407 94.8719 16.5407H108.748C109.322 16.5407 109.61 16.6153 109.61 16.7656C109.61 16.8161 109.597 16.8537 109.573 16.8783ZM122.098 5.53359C121.223 5.22146 119.811 5.06494 117.861 5.06494H101.81C99.2343 5.06494 97.2027 5.34041 95.7153 5.89C94.228 6.44004 93.1467 7.18998 92.4714 8.14025L89.6215 12.228C89.3711 12.5781 89.2025 12.8782 89.1153 13.1277C89.0272 13.3782 88.9838 13.6031 88.9838 13.803C88.9838 14.0534 89.0402 14.2716 89.1524 14.4595C89.2651 14.6468 89.3966 14.8033 89.5464 14.9281C88.7714 15.3033 88.009 15.7782 87.2586 16.3528C86.5087 16.9284 85.921 17.5035 85.4962 18.0781L82.6087 22.2034C82.2832 22.6788 82.1208 23.1036 82.1208 23.4788C82.1208 24.0539 82.5582 24.4975 83.4338 24.8101C84.3085 25.1226 85.7212 25.2787 87.6713 25.2787H103.722C106.297 25.2787 108.329 25.0104 109.816 24.4724C111.304 23.9349 112.385 23.1787 113.06 22.2034L115.948 18.0781C116.423 17.4534 116.661 16.7786 116.661 16.0532C116.661 15.6534 116.561 15.2783 116.361 14.9281C116.961 14.6786 117.598 14.3468 118.273 13.9345C118.948 13.5217 119.548 12.9533 120.073 12.228L122.924 8.14025C123.248 7.74046 123.411 7.31519 123.411 6.86487C123.411 6.29024 122.973 5.84662 122.098 5.53359Z" fill="white"></path><mask id="mask0_3129_5479" style="mask-type:luminance" maskUnits="userSpaceOnUse" x="0" y="32" width="115" height="9"><path d="M6.72037 32.5381L0.0881348 40.8379H108.573L114.578 32.5381H6.72037Z" fill="white"></path></mask><g mask="url(#mask0_3129_5479)"><path d="M110.427 32.5376H114.577V36.6875H110.427V32.5376Z" fill="white"></path><path d="M102.127 32.5376H106.277V36.6875H102.127V32.5376Z" fill="white"></path><path d="M93.8274 32.5376H97.9773V36.6875H93.8274V32.5376Z" fill="white"></path><path d="M85.5271 32.5376H89.677V36.6875H85.5271V32.5376Z" fill="white"></path><path d="M77.97 32.5376H82.1199V36.6875H77.97V32.5376Z" fill="white"></path><path d="M69.6699 32.5376H73.8198V36.6875H69.6699V32.5376Z" fill="white"></path><path d="M61.3701 32.5376H65.52V36.6875H61.3701V32.5376Z" fill="white"></path><path d="M53.0742 32.5376H57.2241V36.6875H53.0742V32.5376Z" fill="white"></path><path d="M44.7749 32.5376H48.9248V36.6875H44.7749V32.5376Z" fill="white"></path><path d="M36.4746 32.5376H40.6245V36.6875H36.4746V32.5376Z" fill="white"></path><path d="M28.1748 32.5376H32.3247V36.6875H28.1748V32.5376Z" fill="white"></path><path d="M19.8743 32.5376H24.0242V36.6875H19.8743V32.5376Z" fill="white"></path><path d="M11.5747 32.5376H15.7246V36.6875H11.5747V32.5376Z" fill="white"></path><path d="M3.27465 32.5376H7.42456V36.6875H3.27465V32.5376Z" fill="white"></path><path d="M106.277 36.6875H110.427V40.8374H106.277V36.6875Z" fill="white"></path><path d="M97.9776 36.6875H102.127V40.8374H97.9776V36.6875Z" fill="white"></path><path d="M89.6772 36.6875H93.8271V40.8374H89.6772V36.6875Z" fill="white"></path><path d="M81.3774 36.6875H85.5273V40.8374H81.3774V36.6875Z" fill="white"></path><path d="M73.8203 36.6875H77.9702V40.8374H73.8203V36.6875Z" fill="white"></path><path d="M65.5203 36.6875H69.6702V40.8374H65.5203V36.6875Z" fill="white"></path><path d="M57.2202 36.6875H61.3701V40.8374H57.2202V36.6875Z" fill="white"></path><path d="M48.9246 36.6875H53.0745V40.8374H48.9246V36.6875Z" fill="white"></path><path d="M40.6245 36.6875H44.7744V40.8374H40.6245V36.6875Z" fill="white"></path><path d="M32.3245 36.6875H36.4744V40.8374H32.3245V36.6875Z" fill="white"></path><path d="M24.0249 36.6875H28.1748V40.8374H24.0249V36.6875Z" fill="white"></path><path d="M15.7244 36.6875H19.8743V40.8374H15.7244V36.6875Z" fill="white"></path><path d="M7.42455 36.6875H11.5745V40.8374H7.42455V36.6875Z" fill="white"></path><path d="M-0.875957 36.6875H3.27393V40.8374H-0.875957V36.6875Z" fill="white"></path></g></svg>