<svg xmlns="http://www.w3.org/2000/svg" id="Calque_1" data-name="Calque 1" viewBox="0 0 300 90"><defs><style>      .cls-1, .cls-2 {        fill: #fff;      }      .cls-2 {        opacity: .87;      }      .cls-3 {        fill: none;      }    </style></defs><g><path class="cls-2" d="m32.8,73.32l-.67,1h-3.25l-3.35,4.93h-2.07l3.35-4.93h-3.23l.67-1h8.55Z"></path><path class="cls-2" d="m35.96,73.32l-1.61,2.38h4.53l1.61-2.38h2.06l-4.02,5.93h-2.06l1.74-2.56h-4.53l-1.74,2.56h-2.07l4.02-5.93h2.07Z"></path><path class="cls-2" d="m42.66,78.25h6.3l-.68,1h-6.64c-.56,0-.96-.04-1.21-.12-.25-.08-.37-.21-.37-.37,0-.1.05-.23.15-.37l2.85-4.19c.18-.27.48-.48.89-.64.41-.15.98-.23,1.71-.23h6.64l-.67,1h-6.3c-.09,0-.16,0-.22.02-.06.01-.11.04-.13.07l-.88,1.29h4.79l-.67.99h-4.79l-1.01,1.5s.08.07.25.07Z"></path><path class="cls-2" d="m63.19,76.68h-4.78l-1.74,2.56h-2.07l3.44-5.06c.18-.27.48-.48.89-.64.41-.15.98-.23,1.71-.23h6.53l-.67,1h-6.19c-.09,0-.16,0-.22.02-.06.01-.11.04-.13.07l-.88,1.29h4.78l-.67.99Z"></path><path class="cls-2" d="m64.82,78.38l2.85-4.19c.18-.27.48-.48.89-.64.41-.15.98-.23,1.71-.23h4.62c.56,0,.96.04,1.21.13.25.08.37.21.37.38,0,.1-.05.22-.15.36l-2.85,4.19c-.2.29-.5.51-.9.65-.4.14-.97.21-1.7.21h-4.62c-.56,0-.96-.04-1.21-.12-.25-.08-.37-.21-.37-.37,0-.1.05-.23.15-.37Zm2.46-.13h3.94c.2,0,.32-.03.35-.09l2.55-3.75s.01-.02.01-.03c0-.04-.08-.05-.25-.05h-3.94c-.09,0-.16,0-.22.02-.06.01-.11.04-.13.07l-2.56,3.77s.08.07.25.07Z"></path><path class="cls-2" d="m73.94,79.25l4.02-5.93h2.07l-4.02,5.93h-2.07Z"></path><path class="cls-2" d="m80.12,78.25h6.3l-.68,1h-6.64c-.56,0-.96-.04-1.21-.12-.25-.08-.37-.21-.37-.37,0-.1.05-.23.15-.37l3.44-5.06h2.07l-3.3,4.86s.08.07.25.07Z"></path><path class="cls-2" d="m86.78,79.25l4.02-5.93h2.07l-4.02,5.93h-2.07Z"></path><path class="cls-2" d="m91.99,79.25h-2.07l4.02-5.93h6.64c.56,0,.96.04,1.21.13.25.08.37.21.37.38,0,.1-.05.22-.15.36l-3.44,5.06h-2.06l3.29-4.84s.01-.02.01-.03c0-.04-.08-.05-.25-.05h-4.23l-3.35,4.93Z"></path><path class="cls-2" d="m102.72,78.25h4.24l1.06-1.56h-1.94l.67-.99h4l-1.83,2.68c-.2.29-.5.51-.9.65-.4.14-.97.21-1.7.21h-4.62c-.56,0-.96-.04-1.21-.12-.25-.08-.37-.21-.37-.37,0-.1.05-.23.15-.37l2.85-4.19c.18-.27.48-.48.89-.64.41-.15.98-.23,1.71-.23h6.64l-.67,1h-6.3c-.09,0-.16,0-.22.02-.06.01-.11.04-.13.07l-2.56,3.77s.08.07.25.07Z"></path><path class="cls-2" d="m121.64,78.25c.2,0,.32-.03.35-.09l.93-1.36v-.03c.01-.05-.07-.08-.22-.08h-4.28c-.55,0-.96-.04-1.21-.12-.25-.08-.37-.21-.37-.37,0-.1.05-.23.15-.37l1.11-1.63c.18-.27.48-.48.89-.64.41-.15.98-.23,1.71-.23h6.64l-.67,1h-6.3c-.09,0-.16,0-.22.02-.06.01-.11.04-.13.07l-.82,1.21c0,.05.08.08.23.08h4.28c.56,0,.96.04,1.21.13.25.08.37.21.37.38,0,.1-.05.22-.15.36l-1.24,1.81c-.2.29-.5.51-.9.65-.4.14-.97.21-1.7.21h-6.64l.68-1h6.3Z"></path><path class="cls-2" d="m124.41,79.25l3.44-5.06c.18-.27.48-.48.89-.64.41-.15.98-.23,1.71-.23h4.62c.56,0,.96.04,1.21.13.25.08.37.21.37.38,0,.1-.05.22-.15.36l-1.11,1.63c-.2.29-.5.51-.9.65-.4.14-.97.21-1.7.21h-4.57l-1.74,2.56h-2.07Zm5.36-4.84l-.88,1.29h4.23c.2,0,.32-.03.36-.1l.81-1.19s.01-.02.01-.03c0-.04-.08-.05-.25-.05h-3.94c-.09,0-.16,0-.22.02-.06.01-.11.04-.13.07Z"></path><path class="cls-2" d="m134.12,79.25l4.02-5.93h2.07l-4.03,5.93h-2.07Z"></path><path class="cls-2" d="m141.28,73.32h6.65c.56,0,.96.04,1.21.13.25.08.37.21.37.38,0,.1-.05.22-.15.36l-1.11,1.63c-.17.26-.41.45-.72.59s-.73.23-1.28.26l.06,2.57h-2.12l-.09-2.56h-3.04l-1.74,2.56h-2.07l4.03-5.93Zm4.7,2.38c.19,0,.31-.03.35-.1l.81-1.19s.01-.02.01-.03c0-.04-.08-.05-.23-.05h-4.24l-.94,1.38h4.24Z"></path><path class="cls-2" d="m146.96,79.25l4.02-5.93h2.07l-4.03,5.93h-2.07Z"></path><path class="cls-2" d="m162.67,73.32l-.67,1h-3.25l-3.35,4.93h-2.07l3.35-4.93h-3.23l.67-1h8.55Z"></path><path class="cls-2" d="m171.94,78.25c.2,0,.32-.03.35-.09l.93-1.36v-.03c0-.05-.07-.08-.22-.08h-4.28c-.55,0-.96-.04-1.21-.12-.25-.08-.37-.21-.37-.37,0-.1.05-.23.15-.37l1.11-1.63c.19-.27.48-.48.89-.64.41-.15.98-.23,1.71-.23h6.64l-.67,1h-6.3c-.09,0-.16,0-.22.02-.06.01-.11.04-.13.07l-.82,1.21c0,.05.08.08.24.08h4.28c.56,0,.96.04,1.21.13.25.08.37.21.37.38,0,.1-.05.22-.15.36l-1.24,1.81c-.2.29-.5.51-.9.65-.4.14-.97.21-1.7.21h-6.64l.68-1h6.3Z"></path><path class="cls-2" d="m174.66,79.25l4.02-5.93h2.07l-4.03,5.93h-2.07Z"></path><path class="cls-2" d="m179.87,79.25h-2.07l4.03-5.93h6.64c.56,0,.96.04,1.21.13.25.08.37.21.37.38,0,.1-.05.22-.15.36l-3.44,5.06h-2.06l3.29-4.84s.01-.02.01-.03c0-.04-.08-.05-.25-.05h-4.23l-3.35,4.93Z"></path><path class="cls-2" d="m190.6,78.25h6.3l-.68,1h-6.64c-.55,0-.96-.04-1.21-.12-.25-.08-.37-.21-.37-.37,0-.1.05-.23.15-.37l2.85-4.19c.19-.27.48-.48.89-.64.41-.15.98-.23,1.71-.23h6.64l-.67,1h-6.3c-.09,0-.16,0-.22.02-.06.01-.11.04-.13.07l-2.56,3.77s.08.07.25.07Z"></path><path class="cls-2" d="m200.36,78.25h6.3l-.68,1h-6.64c-.55,0-.96-.04-1.21-.12-.25-.08-.37-.21-.37-.37,0-.1.05-.23.15-.37l2.85-4.19c.19-.27.48-.48.89-.64.41-.15.98-.23,1.71-.23h6.64l-.67,1h-6.3c-.09,0-.16,0-.22.02-.06.01-.11.04-.13.07l-.88,1.29h4.79l-.67.99h-4.79l-1.01,1.5s.08.07.25.07Z"></path><path class="cls-2" d="m216.73,75.69h4.28c.2,0,.32-.03.36-.1l.81-1.19s.01-.02.01-.03c0-.04-.08-.05-.25-.05h-3.94c-.09,0-.17.02-.25.06-.08.04-.15.1-.2.17h-2.07l.25-.36c.19-.27.48-.48.89-.64.41-.15.98-.23,1.71-.23h4.62c.56,0,.96.04,1.21.13.25.08.37.21.37.38,0,.1-.05.22-.15.36l-1.11,1.63c-.2.29-.5.51-.9.65-.4.14-.97.21-1.7.21h-4.28c-.08,0-.16,0-.23.03-.07.02-.11.04-.12.07l-.99,1.46h6.59l-.68,1h-8.66l1.83-2.68c.2-.29.5-.51.91-.66.41-.14.97-.21,1.7-.21Z"></path><path class="cls-2" d="m222.64,78.38l2.85-4.19c.19-.27.48-.48.89-.64.41-.15.98-.23,1.71-.23h4.62c.56,0,.96.04,1.21.13.25.08.37.21.37.38,0,.1-.05.22-.15.36l-2.85,4.19c-.2.29-.5.51-.9.65-.4.14-.97.21-1.7.21h-4.62c-.55,0-.96-.04-1.21-.12-.25-.08-.37-.21-.37-.37,0-.1.05-.23.15-.37Zm2.46-.13h3.94c.2,0,.32-.03.35-.09l2.55-3.75s.01-.02.01-.03c0-.04-.08-.05-.25-.05h-3.94c-.09,0-.16,0-.22.02-.06.01-.11.04-.13.07l-2.56,3.77s.08.07.25.07Zm4.87-2.74l-.93,1.38h-2.08l.93-1.38h2.08Z"></path><path class="cls-2" d="m232.4,78.38l2.85-4.19c.19-.27.48-.48.89-.64.41-.15.98-.23,1.71-.23h4.62c.56,0,.96.04,1.21.13.25.08.37.21.37.38,0,.1-.05.22-.15.36l-2.85,4.19c-.2.29-.5.51-.9.65-.4.14-.97.21-1.7.21h-4.62c-.55,0-.96-.04-1.21-.12-.25-.08-.37-.21-.37-.37,0-.1.05-.23.15-.37Zm2.46-.13h3.94c.2,0,.32-.03.35-.09l2.55-3.75s.01-.02.01-.03c0-.04-.08-.05-.25-.05h-3.94c-.09,0-.16,0-.22.02-.06.01-.11.04-.13.07l-2.56,3.77s.08.07.25.07Zm4.87-2.74l-.93,1.38h-2.08l.93-1.38h2.08Z"></path><path class="cls-2" d="m248.55,78.25c.2,0,.32-.03.35-.09l1-1.47h-6.6l1.7-2.5c.19-.27.48-.48.89-.64.41-.15.98-.23,1.71-.23h4.62c.56,0,.96.04,1.21.13.25.08.37.21.37.38,0,.1-.05.22-.15.36l-2.85,4.19c-.2.29-.5.51-.9.65-.4.14-.97.21-1.7.21h-4.62c-.55,0-.96-.04-1.21-.12-.25-.08-.37-.21-.37-.37,0-.1.05-.23.15-.37l.25-.36h1.97s.04.07.06.13c.02.07.08.1.18.1h3.94Zm-1.62-3.84l-.88,1.29h4.53l.88-1.29s.01-.02.01-.03c0-.04-.08-.05-.25-.05h-3.94c-.09,0-.16,0-.22.02-.06.01-.11.04-.13.07Z"></path></g><g id="Plan-de-travail6"><rect class="cls-3" x="24.27" y="20.01" width="259.1" height="44.26"></rect><path class="cls-1" d="m98.59,34.61h-27.44s1.77-2.17,1.77-2.17v-.02s.02-.02.04-.03c.07-.05.15-.1.24-.14.14-.07.29-.14.47-.21.23-.09.48-.16.76-.22.34-.08.7-.14,1.1-.2.46-.06.94-.1,1.47-.12.15,0,.29-.01.43-.01h21.29s.69,0,.69,0c.29,0,.58.01.87.02.29.01.57.03.83.05l-2.51,3.06Zm184.42-14.1v-.05h-51.8l-3.12.02h-.05c-4.19,0-8.17.41-11.82,1.22-2.91.65-5.63,1.56-8.08,2.69l1.24-1.53-.03-.02h.04v-2.36h-.04v-.03c-18.75.02-37.78.02-56.53.02h-.04c-3.73,0-7.25.45-10.47,1.34-2.58.71-4.98,1.71-7.11,2.95-1.9,1.11-3.25,2.22-4.03,2.96-.85.79-1.26,1.33-1.27,1.35l-13.83,17.02-5.31,1.52,13.97-17.18-.03-.02h.04c1.03-2.15.97-4.01-.19-5.51-.91-1.17-2.48-2.13-4.7-2.85-1.77-.58-3.94-1-6.46-1.28-4.25-.45-8.08-.3-8.18-.29h-27.83s-.04.01-.04.01c-3.78,0-7.37.45-10.68,1.34-2.66.71-5.14,1.71-7.38,2.95-1.99,1.11-3.42,2.22-4.26,2.96-.92.8-1.37,1.34-1.38,1.35l.06.04-.06-.04-20.24,25.03-8.4,9.3.03.02v.03h19.39v-.04l.03.02,14.79-18.09h33.88s-7.13,8.75-7.13,8.75l-8.62,9.3.03.02v.03h20.47s23.25-.01,23.25-.01v-.03l.03.02,8.39-9.05-.03-.03.04.02,7.35-9.04h38.25v-.03l.03.02,8.73-10.68-.03-.02v-.03h-37.41l1.05-1.17c.12-.13.23-.26.33-.38,1.22-1.4,1.35-1.54,7.58-1.57h46.88l-6.21,7.63.04.03-.04-.02c-1.43,1.83-1.82,3.35-1.14,4.51,1.45,2.5,7.37,2.52,7.55,2.52h39.98s-3.76,4.62-3.76,4.62c-1.04,1.28-2.46,1.92-4.22,1.92h-48.11v.03l-.03-.02-10.02,10.69.03.02v.03s38.87-.02,56.03-.02c4.21,0,8.02-.38,11.33-1.12,2.64-.59,4.97-1.42,6.92-2.46,3.24-1.73,4.34-3.47,4.4-3.58l10.16-12.5c2.64-3.21,3.49-5.64,2.53-7.23-1.33-2.18-5.68-1.97-5.8-1.97h-41.78s.58-.71.58-.71c.08-.1,2.01-2.4,7.46-2.4h44.68v-.03l.03.02,10.14-10.95-.03-.02Z"></path></g></svg>